<svg width="63" height="77" viewBox="0 0 63 77" fill="none" xmlns="http://www.w3.org/2000/svg">
<path d="M21.3698 59.926C21.4962 59.5783 21.8266 59.3468 22.1965 59.3468H40.6756C41.037 59.3468 41.3617 59.5679 41.4941 59.9042L44.4395 67.3845C46.2576 72.0018 42.8539 77 37.8915 77H25.2095C20.3263 77 16.9275 72.1483 18.5956 67.5589L21.3698 59.926Z" fill="black"/>
<path d="M20.5681 58.5586C20.5681 57.2667 21.751 56.3012 23.0241 56.5204C28.996 57.5485 33.1717 57.5555 39.14 56.5241C40.4151 56.3037 41.6011 57.2702 41.6011 58.5642C41.6011 59.5343 40.92 60.3749 39.9672 60.5572C33.3546 61.8218 28.9868 61.8261 22.2085 60.5523C21.2528 60.3726 20.5681 59.5311 20.5681 58.5586Z" fill="#D1532A"/>
<path d="M10.7209 0.0234783C4.73922 0.552223 6.02938 16.5468 7.42217 24.4779C-1.0031 34.6147 3.44389 46.0841 7.42217 49.9492C19.8955 62.0689 41.375 57.7417 47.2267 55.1011C66.755 46.2887 60.9346 31.0138 55.5834 24.4779C58.9261 9.32058 58.3747 3.71302 54.044 1.56565C48.4142 -0.373081 40.2627 7.95465 36.8907 12.3609C33.3721 10.9509 28.9738 11.7734 27.2145 12.3609C24.209 8.02809 16.7025 -0.505267 10.7209 0.0234783Z" fill="black"/>
<path d="M29.8823 9.46594C30.6849 9.96372 32.2443 11.7174 32.0608 14.75" stroke="black" stroke-width="2.19914" stroke-linecap="round"/>
<path d="M33.5803 6.91187C33.8561 7.81627 35.1547 12.5872 33.0208 14.746" stroke="black" stroke-width="2.19914" stroke-linecap="round"/>
<path d="M7.73106 47.4304C7.09717 48.3829 5.67094 50.5261 5.03711 51.4786" stroke="black" stroke-width="2.19914" stroke-linecap="round"/>
<path d="M6.81412 45.6677C5.68138 45.8187 3.13273 46.1585 2.00004 46.3096" stroke="black" stroke-width="2.19914" stroke-linecap="round"/>
<path d="M10.0937 49.4545C9.99449 50.5949 9.77135 53.161 9.67221 54.3014" stroke="black" stroke-width="2.19914" stroke-linecap="round"/>
<path d="M55.6547 46.8714C56.3744 47.7606 57.9938 49.7612 58.7135 50.6504" stroke="black" stroke-width="2.19914" stroke-linecap="round"/>
<path d="M56.4038 45.0307C57.5457 45.0753 60.1148 45.1757 61.2567 45.2203" stroke="black" stroke-width="2.19914" stroke-linecap="round"/>
<path d="M53.4906 49.1072C53.6954 50.2335 54.1563 52.7675 54.3611 53.8937" stroke="black" stroke-width="2.19914" stroke-linecap="round"/>
<path d="M31.0842 59.3468C32.4398 59.3468 33.5393 60.4478 33.5393 61.8058C33.5392 63.0963 32.5464 64.1521 31.2844 64.254V62.879C31.4918 62.7985 31.6397 62.5986 31.6399 62.3624C31.6399 62.0554 31.3916 61.8061 31.0852 61.8058C30.7786 61.8058 30.5295 62.0552 30.5295 62.3624C30.5298 62.5986 30.6776 62.7985 30.885 62.879V64.254C29.6229 64.1522 28.6302 63.0964 28.6301 61.8058C28.6301 60.4479 29.7288 59.347 31.0842 59.3468Z" fill="#F7B534"/>
<path d="M43.8702 63.0134C44.4051 68.9397 41.9515 70.6621 40.6578 70.7826L39.1677 76.7797C47.7561 75.571 50.7235 67.3763 51.1337 63.43C51.3211 62.2011 50.8777 59.7093 47.6049 59.5728C44.3322 59.4363 43.7515 61.8097 43.8702 63.0134Z" fill="black"/>
<ellipse cx="20.8364" cy="33.8476" rx="9.77415" ry="9.79177" fill="white"/>
<ellipse cx="43.3152" cy="33.4505" rx="9.77415" ry="9.39471" fill="white"/>
<ellipse cx="43.3151" cy="33.4504" rx="5.72791" ry="4.29039" fill="black"/>
<ellipse cx="20.8364" cy="33.8475" rx="4.707" ry="5.45041" fill="black"/>
<line x1="48.4455" y1="44.5983" x2="48.4455" y2="48.1403" stroke="white" stroke-width="0.439828" stroke-linecap="round"/>
<line x1="49.9768" y1="43.1121" x2="49.9767" y2="46.654" stroke="white" stroke-width="0.439828" stroke-linecap="round"/>
<line x1="51.5559" y1="42.1109" x2="51.5559" y2="45.6528" stroke="white" stroke-width="0.439828" stroke-linecap="round"/>
<line x1="10.6997" y1="23.5285" x2="10.6996" y2="27.0704" stroke="white" stroke-width="0.439828" stroke-linecap="round"/>
<line x1="12.2309" y1="22.0423" x2="12.2309" y2="25.5842" stroke="white" stroke-width="0.439828" stroke-linecap="round"/>
<line x1="13.8102" y1="21.0411" x2="13.8102" y2="24.583" stroke="white" stroke-width="0.439828" stroke-linecap="round"/>
</svg>
