<svg width="25" height="24" viewBox="0 0 25 24" fill="none" xmlns="http://www.w3.org/2000/svg">
<path d="M18.9199 2H17.0199C14.8399 2 13.6899 3.15 13.6899 5.33V7.23C13.6899 9.41 14.8399 10.56 17.0199 10.56H18.9199C21.0999 10.56 22.2499 9.41 22.2499 7.23V5.33C22.2499 3.15 21.0999 2 18.9199 2Z" fill="#545454"/>
<path d="M7.49 13.4301H5.59C3.4 13.4301 2.25 14.5801 2.25 16.7601V18.6601C2.25 20.8501 3.4 22.0001 5.58 22.0001H7.48C9.66 22.0001 10.81 20.8501 10.81 18.6701V16.7701C10.82 14.5801 9.67 13.4301 7.49 13.4301Z" fill="#545454"/>
<path d="M6.54 10.58C8.9093 10.58 10.83 8.6593 10.83 6.29C10.83 3.9207 8.9093 2 6.54 2C4.1707 2 2.25 3.9207 2.25 6.29C2.25 8.6593 4.1707 10.58 6.54 10.58Z" fill="#545454"/>
<path d="M17.96 22C20.3293 22 22.25 20.0793 22.25 17.71C22.25 15.3407 20.3293 13.42 17.96 13.42C15.5907 13.42 13.67 15.3407 13.67 17.71C13.67 20.0793 15.5907 22 17.96 22Z" fill="#545454"/>
</svg>
