<svg width="25" height="24" viewBox="0 0 25 24" fill="none" xmlns="http://www.w3.org/2000/svg">
<path d="M14.39 2.88002L9.69999 2.14002C5.78999 1.53002 3.97999 2.85002 3.35999 6.76002L2.61999 11.45C2.21999 14.01 2.63999 15.67 4.08999 16.68C4.84999 17.22 5.88999 17.58 7.23999 17.79L11.93 18.53C15.84 19.14 17.65 17.82 18.27 13.91L19 9.22002C19.12 8.45002 19.17 7.76002 19.13 7.15002C19 4.65002 17.53 3.37002 14.39 2.88002ZM8.73999 9.35002C7.56999 9.35002 6.61999 8.40002 6.61999 7.24002C6.61999 6.07002 7.56999 5.12002 8.73999 5.12002C9.89999 5.12002 10.85 6.07002 10.85 7.24002C10.85 8.40002 9.89999 9.35002 8.73999 9.35002Z" fill="#545454"/>
<path d="M21 13.4701L19.5 17.9801C18.25 21.7401 16.25 22.7401 12.49 21.4901L7.98001 19.9901C6.57001 19.5201 5.55001 18.9401 4.89001 18.2101C5.52001 18.4601 6.25001 18.6501 7.08001 18.7801L11.78 19.5201C12.42 19.6201 13.02 19.6701 13.58 19.6701C16.88 19.6701 18.65 17.8901 19.26 14.0601L19.99 9.37006C20.09 8.79006 20.13 8.28006 20.13 7.81006C21.65 9.06006 21.87 10.8401 21 13.4701Z" fill="#545454"/>
</svg>
