<svg width="30" height="20" viewBox="0 0 30 20" fill="none" xmlns="http://www.w3.org/2000/svg">
<g clip-path="url(#clip0_2004_21348)">
<path d="M0 0H30V20H0V0Z" fill="#012169"/>
<path d="M3.51562 0L14.9531 7.54167L26.3438 0H30V2.58333L18.75 10.0417L30 17.4583V20H26.25L15 12.5417L3.79688 20H0V17.5L11.2031 10.0833L0 2.66667V0H3.51562Z" fill="white"/>
<path d="M19.875 11.7083L30 18.3333V20L17.2969 11.7083H19.875ZM11.25 12.5417L11.5312 14L2.53125 20H0L11.25 12.5417ZM30 0V0.125L18.3281 7.95833L18.4219 6.125L27.6562 0H30ZM0 0L11.2031 7.33333H8.39062L0 1.75V0Z" fill="#C8102E"/>
<path d="M11.2969 0V20H18.7969V0H11.2969ZM0 6.66667V13.3333H30V6.66667H0Z" fill="white"/>
<path d="M0 8.04167V12.0417H30V8.04167H0ZM12.7969 0V20H17.2969V0H12.7969Z" fill="#C8102E"/>
</g>
<defs>
<clipPath id="clip0_2004_21348">
<rect width="30" height="20" rx="2" fill="white"/>
</clipPath>
</defs>
</svg>
