<svg width="25" height="24" viewBox="0 0 25 24" fill="none" xmlns="http://www.w3.org/2000/svg">
<path d="M18.75 8L21.3 4.6C21.4112 4.45136 21.4788 4.27474 21.4953 4.08987C21.5119 3.90501 21.4767 3.71918 21.3937 3.55317C21.3107 3.38716 21.1831 3.24751 21.0253 3.14982C20.8675 3.05213 20.6856 3.00026 20.5 3H8.5C8.5 2.73478 8.39464 2.48043 8.20711 2.29289C8.01957 2.10536 7.76522 2 7.5 2C7.23478 2 6.98043 2.10536 6.79289 2.29289C6.60536 2.48043 6.5 2.73478 6.5 3V20H5.5C5.23478 20 4.98043 20.1054 4.79289 20.2929C4.60536 20.4804 4.5 20.7348 4.5 21C4.5 21.2652 4.60536 21.5196 4.79289 21.7071C4.98043 21.8946 5.23478 22 5.5 22H9.5C9.76522 22 10.0196 21.8946 10.2071 21.7071C10.3946 21.5196 10.5 21.2652 10.5 21C10.5 20.7348 10.3946 20.4804 10.2071 20.2929C10.0196 20.1054 9.76522 20 9.5 20H8.5V13H20.5C20.6856 12.9997 20.8675 12.9479 21.0253 12.8502C21.1831 12.7525 21.3107 12.6128 21.3937 12.4468C21.4767 12.2808 21.5119 12.095 21.4953 11.9101C21.4788 11.7253 21.4112 11.5486 21.3 11.4L18.75 8Z" fill="#545454"/>
</svg>
